# File created by Blade
# Date/Time:  Thu Jan 15 19:03:44 2015
#---------------------------------------------------------
:version 1.10
:name HOM
:units
  mass 1.0
  length 1.000000
  angle deg
:documentation
     Acclaim Skeleton File
:root
   axis xyz
   order TX TY TZ RX RY RZ
   position 0.000000 0.000000 0.000000
   orientation 0 0 0
:bonedata
   begin
      id 1
      name Spine_dum
      direction 0.000000 1.000000 0.000000
      length 4.354460
      axis 0.0 0.0 0.0 xyz
   end
   begin
      id 2
      name LeftUpLeg_dum
      direction 1.000000 0.000000 0.000000
      length 4.291077
      axis 0.0 0.0 0.0 xyz
   end
   begin
      id 3
      name RightUpLeg_dum
      direction -1.000000 0.000000 0.000000
      length 4.291077
      axis 0.0 0.0 0.0 xyz
   end
   begin
      id 4
      name Spine
      direction 0.000000 1.000000 0.000000
      length 0.000000
      axis 0.0 0.0 0.0 xyz
      dof rx ry rz
   end
   begin
      id 5
      name Spine_dum1
      direction 0.000000 1.000000 0.000000
      length 16.581769
      axis 0.0 0.0 0.0 xyz
   end
   begin
      id 6
      name Spine_dum2
      direction 0.000000 1.000000 0.000000
      length 12.903700
      axis 0.0 0.0 0.0 xyz
   end
   begin
      id 7
      name Spine_dum3
      direction 0.000000 1.000000 0.000000
      length 12.903700
      axis 0.0 0.0 0.0 xyz
   end
   begin
      id 8
      name Head
      direction 0.000000 1.000000 0.000000
      length 4.527550
      axis 0.0 0.0 0.0 xyz
      dof rx ry rz
   end
   begin
      id 9
      name LeftShoulder
      direction 1.000000 0.000000 0.000000
      length 6.942033
      axis 0.0 0.0 -90.0 xyz
      dof rx ry rz
   end
   begin
      id 10
      name LeftArm
      direction 1.000000 0.000000 0.000000
      length 11.010391
      axis 0.0 0.0 -90.0 xyz
      dof rx ry rz
   end
   begin
      id 11
      name LeftForeArm
      direction 1.000000 0.000000 0.000000
      length 8.054994
      axis 0.0 0.0 -90.0 xyz
      dof rz ry rx
   end
   begin
      id 12
      name LeftHand
      direction 0.000000 0.000000 0.000000
      length 0.000000
      axis 0.0 0.0 -90.0 xyz
      dof rx ry rz
   end
   begin
      id 13
      name LeftHand_dum1
      direction 0.000000 0.000000 0.000000
      length 0.000000
      axis 0.0 0.0 -90.0 xyz
   end
   begin
      id 14
      name LeftHand_dum2
      direction 1.000000 0.000000 0.000000
      length 3.937000
      axis 0.0 0.0 -90.0 xyz
   end
   begin
      id 15
      name LeftHandThumb1
      direction 0.000000 0.000000 1.000000
      length 3.937000
      axis 0.0 0.0 -90.0 xyz
      dof rx ry rz
   end
   begin
      id 16
      name RightShoulder
      direction -1.000000 0.000000 0.000000
      length 6.942033
      axis 0.0 0.0 90.0 xyz
      dof rx ry rz
   end
   begin
      id 17
      name RightArm
      direction -1.000000 0.000000 0.000000
      length 11.010391
      axis 0.0 0.0 90.0 xyz
      dof rx ry rz
   end
   begin
      id 18
      name RightForeArm
      direction -1.000000 0.000000 0.000000
      length 8.054994
      axis 0.0 0.0 90.0 xyz
      dof rz ry rx
   end
   begin
      id 19
      name RightHand
      direction 0.000000 0.000000 0.000000
      length 0.000000
      axis 0.0 0.0 90.0 xyz
      dof rx ry rz
   end
   begin
      id 20
      name RightHand_dum1
      direction 0.000000 0.000000 0.000000
      length 0.000000
      axis 0.0 0.0 90.0 xyz
   end
   begin
      id 21
      name RightHand_dum2
      direction -1.000000 0.000000 0.000000
      length 3.937000
      axis 0.0 0.0 90.0 xyz
   end
   begin
      id 22
      name RightHandThumb1
      direction 0.000000 0.000000 1.000000
      length 3.937000
      axis 0.0 0.0 90.0 xyz
      dof rx ry rz
   end
   begin
      id 23
      name LeftUpLeg
      direction 0.000000 -1.000000 0.000000
      length 17.039958
      axis 0.0 0.0 0.0 xyz
      dof rx ry rz
   end
   begin
      id 24
      name LeftLeg
      direction 0.000000 -1.000000 0.000000
      length 16.939743
      axis 0.0 0.0 0.0 xyz
      dof rx ry rz
   end
   begin
      id 25
      name LeftFoot
      direction 0.000000 -0.258819 0.965926
      length 5.235044
      axis 15.0 0.0 0.0 xyz
      dof rx ry rz
   end
   begin
      id 26
      name LeftToeBase
      direction 0.000000 0.000000 1.000000
      length 2.952750
      axis 0.0 0.0 0.0 xyz
      dof rx ry rz
   end
   begin
      id 27
      name RightUpLeg
      direction 0.000000 -1.000000 0.000000
      length 17.039958
      axis 0.0 0.0 0.0 xyz
      dof rx ry rz
   end
   begin
      id 28
      name RightLeg
      direction 0.000000 -1.000000 0.000000
      length 16.939743
      axis 0.0 0.0 0.0 xyz
      dof rx ry rz
   end
   begin
      id 29
      name RightFoot
      direction 0.000000 -0.258819 0.965926
      length 5.235044
      axis 15.0 0.0 0.0 xyz
      dof rx ry rz
   end
   begin
      id 30
      name RightToeBase
      direction 0.000000 0.000000 1.000000
      length 2.952750
      axis 0.0 0.0 0.0 xyz
      dof rx ry rz
   end
:hierarchy
   begin
      root Spine_dum LeftUpLeg_dum RightUpLeg_dum
      Spine_dum Spine
      LeftUpLeg_dum LeftUpLeg
      RightUpLeg_dum RightUpLeg
      Spine Spine_dum1 Spine_dum2 Spine_dum3
      Spine_dum1 Head
      Spine_dum2 LeftShoulder
      Spine_dum3 RightShoulder
      LeftShoulder LeftArm
      LeftArm LeftForeArm
      LeftForeArm LeftHand
      LeftHand LeftHand_dum1 LeftHand_dum2
      LeftHand_dum1 LeftHandThumb1
      RightShoulder RightArm
      RightArm RightForeArm
      RightForeArm RightHand
      RightHand RightHand_dum1 RightHand_dum2
      RightHand_dum1 RightHandThumb1
      LeftUpLeg LeftLeg
      LeftLeg LeftFoot
      LeftFoot LeftToeBase
      RightUpLeg RightLeg
      RightLeg RightFoot
      RightFoot RightToeBase
   end

# File created by Blade
# Date/Time:  Thu Jan 15 19:03:33 2015
# Frame Rate: 120.000 fps
#------------------------------------------------------
:FULLY-SPECIFIED
:DEGREES
389
root 2.255739 35.782060 -10.419309 -172.233794 1.074328 -179.536052
Spine -10.686376 9.187242 -2.457809
Head -1.259384 -5.187717 8.873374
LeftShoulder -13.747824 8.674354 18.176707
LeftArm -11.765278 -51.535402 -13.001783
LeftForeArm -0.000000 12.140479 2.151398
LeftHand 5.108700 -0.000000 6.414208
LeftHandThumb1 -26.253704 33.147579 0.000000
RightShoulder -29.832504 2.345171 -22.702102
RightArm -10.317195 30.634436 14.468252
RightForeArm -0.000000 -52.105017 15.861647
RightHand -0.551540 -0.000000 3.955993
RightHandThumb1 -24.326973 -32.862282 -0.000000
LeftUpLeg -2.549281 10.239933 -2.836858
LeftLeg -3.257671 -0.000000 0.000000
LeftFoot -15.154118 23.479356 -9.438620
LeftToeBase 20.364096 -0.000000 -0.000000
RightUpLeg -3.948558 -8.771673 0.593309
RightLeg -0.781457 -0.000000 0.000000
RightFoot -14.901686 -27.578570 9.168629
RightToeBase 20.081497 -0.000000 -0.000000
390
root 2.255905 35.781618 -10.442240 -172.141161 0.845951 -179.544409
Spine -10.745934 9.161911 -2.470105
Head -1.303361 -5.149650 8.815722
LeftShoulder -13.977038 8.922676 18.276633
LeftArm -12.595679 -51.222814 -13.094487
LeftForeArm -0.000000 11.989696 2.150194
LeftHand 5.550149 -0.000000 6.458516
LeftHandThumb1 -26.253704 33.147579 0.000000
RightShoulder -30.111673 2.306509 -22.928828
RightArm -11.640777 30.755699 13.977564
RightForeArm -0.000000 -52.268852 16.004133
RightHand -0.729888 -0.000000 4.297124
RightHandThumb1 -24.326973 -32.862282 -0.000000
LeftUpLeg -2.628022 9.992791 -2.824693
LeftLeg -3.245851 -0.000000 0.000000
LeftFoot -15.167586 23.475867 -9.437467
LeftToeBase 20.412230 -0.000000 -0.000000
RightUpLeg -3.955137 -8.984433 0.619901
RightLeg -0.823155 -0.000000 0.000000
RightFoot -14.949703 -27.577643 9.239545
RightToeBase 20.054033 -0.000000 -0.000000
391
root 2.255278 35.781675 -10.464537 -172.064979 0.621513 -179.553762
Spine -10.794363 9.170715 -2.471366
Head -1.334300 -5.166196 8.733339
LeftShoulder -14.184923 9.151121 18.320574
LeftArm -13.229833 -50.815324 -13.268907
LeftForeArm -0.000000 11.740965 2.094931
LeftHand 5.345869 0.000000 7.338397
LeftHandThumb1 -26.253704 33.147579 0.000000
RightShoulder -30.417164 2.222490 -23.178425
RightArm -12.892928 30.957138 13.538720
RightForeArm -0.000000 -52.241166 16.170200
RightHand -0.926388 -0.000000 4.447768
RightHandThumb1 -24.326973 -32.862282 -0.000000
LeftUpLeg -2.689917 9.748147 -2.811577
LeftLeg -3.234545 -0.000000 0.000000
LeftFoot -15.161433 23.466883 -9.437121
LeftToeBase 20.335444 -0.000000 -0.000000
RightUpLeg -3.950793 -9.206189 0.640110
RightLeg -0.855686 -0.000000 0.000000
RightFoot -15.001674 -27.554506 9.308307
RightToeBase 20.049838 -0.000000 -0.000000
392
root 2.252285 35.781668 -10.485697 -172.004824 0.349476 -179.574120
Spine -10.829660 9.136849 -2.461867
Head -1.332655 -5.075935 8.654013
LeftShoulder -14.342650 9.334352 18.333049
LeftArm -13.916649 -50.355434 -13.354437
LeftForeArm -0.000000 11.456383 2.041141
LeftHand 5.223560 -0.000000 7.454179
LeftHandThumb1 -26.253704 33.147579 0.000000
RightShoulder -30.707648 2.067132 -23.416620
RightArm -14.084091 31.386734 13.128395
RightForeArm 0.000000 -52.389108 16.255651
RightHand -1.250945 -0.000000 4.705642
RightHandThumb1 -24.326973 -32.862282 -0.000000
LeftUpLeg -2.750400 9.455050 -2.805214
LeftLeg -3.207588 -0.000000 0.000000
LeftFoot -15.164207 23.470918 -9.444186
LeftToeBase 20.344543 -0.000000 -0.000000
RightUpLeg -3.931759 -9.457626 0.651247
RightLeg -0.877523 -0.000000 0.000000
RightFoot -15.062284 -27.562091 9.356129
RightToeBase 20.064283 -0.000000 -0.000000
393
root 2.252773 35.780895 -10.506607 -171.947863 0.109579 -179.596348
Spine -10.868563 9.123228 -2.494385
Head -1.340868 -5.047653 8.639574
LeftShoulder -14.503491 9.514187 18.417505
LeftArm -14.557361 -49.989160 -13.510901
LeftForeArm 0.000000 11.020440 1.942069
LeftHand 5.255259 0.000000 7.470874
LeftHandThumb1 -26.253704 33.147579 0.000000
RightShoulder -31.000560 1.899153 -23.608411
RightArm -15.103336 31.556716 12.797545
RightForeArm -0.000000 -52.350676 16.103291
RightHand -1.282017 -0.000000 4.579325
RightHandThumb1 -24.326973 -32.862282 -0.000000
LeftUpLeg -2.803037 9.209436 -2.797155
LeftLeg -3.182420 -0.000000 0.000000
LeftFoot -15.173709 23.437878 -9.468844
LeftToeBase 20.332641 -0.000000 -0.000000
RightUpLeg -3.907903 -9.648000 0.660601
RightLeg -0.911946 -0.000000 0.000000
RightFoot -15.113631 -27.612306 9.406583
RightToeBase 20.008376 -0.000000 -0.000000
394
root 2.251219 35.780865 -10.529981 -171.901054 -0.153097 -179.623375
Spine -10.922208 9.071136 -2.519013
Head -1.290310 -4.972552 8.610752
LeftShoulder -14.674800 9.708810 18.497091
LeftArm -15.220329 -49.939436 -13.627341
LeftForeArm 0.000000 10.496789 1.886550
LeftHand 5.262099 -0.000000 7.432438
LeftHandThumb1 -26.253704 33.147579 0.000000
RightShoulder -31.246380 1.747513 -23.779862
RightArm -16.093540 31.815350 12.423978
RightForeArm 0.000000 -52.414086 16.037385
RightHand -1.568622 0.000000 4.802336
RightHandThumb1 -24.326973 -32.862282 -0.000000
LeftUpLeg -2.839946 8.942047 -2.793949
LeftLeg -3.168664 -0.000000 0.000000
LeftFoot -15.167086 23.434110 -9.483218
LeftToeBase 20.294171 -0.000000 -0.000000
RightUpLeg -3.888094 -9.933218 0.670536
RightLeg -0.908362 -0.000000 0.000000
RightFoot -15.183742 -27.573677 9.449729
RightToeBase 20.064094 -0.000000 -0.000000
395
root 2.251486 35.780659 -10.550201 -171.855173 -0.427199 -179.653706
Spine -10.971951 9.011826 -2.556582
Head -1.256486 -4.911863 8.601393
LeftShoulder -14.804910 9.841551 18.540066
LeftArm -15.882563 -49.946387 -13.645851
LeftForeArm -0.000000 9.987808 1.766809
LeftHand 5.151966 -0.000000 7.618591
LeftHandThumb1 -26.253704 33.147579 0.000000
RightShoulder -31.474405 1.653924 -23.962198
RightArm -17.027194 31.884408 12.106714
RightForeArm -0.000000 -52.388393 15.969458
RightHand -1.752522 0.000000 4.709752
RightHandThumb1 -24.326973 -32.862282 -0.000000
LeftUpLeg -2.887301 8.661276 -2.788347
LeftLeg -3.141146 -0.000000 0.000000
LeftFoot -15.162277 23.411081 -9.488533
LeftToeBase 20.247119 -0.000000 -0.000000
RightUpLeg -3.853258 -10.100205 0.667090
RightLeg -0.929336 -0.000000 0.000000
RightFoot -15.269501 -27.671620 9.532169
RightToeBase 20.015231 -0.000000 -0.000000
396
root 2.250744 35.780842 -10.567759 -171.830639 -0.732045 -179.690824
Spine -10.992716 8.909311 -2.585295
Head -1.212915 -4.839370 8.613164
LeftShoulder -14.973262 9.953869 18.559480
LeftArm -16.484862 -50.039492 -13.651047
LeftForeArm 0.000000 9.437634 1.656560
LeftHand 5.172946 -0.000000 7.483076
LeftHandThumb1 -26.253704 33.147579 0.000000
RightShoulder -31.638591 1.664135 -24.190009
RightArm -17.966441 31.860351 11.765000
RightForeArm 0.000000 -52.448651 15.878756
RightHand -1.852581 -0.000000 4.777722
RightHandThumb1 -24.326973 -32.862282 -0.000000
LeftUpLeg -2.939815 8.352455 -2.783903
LeftLeg -3.075237 -0.000000 0.000000
LeftFoot -15.168105 23.397046 -9.487437
LeftToeBase 20.260735 -0.000000 -0.000000
RightUpLeg -3.800484 -10.270460 0.655476
RightLeg -0.944503 -0.000000 0.000000
RightFoot -15.351297 -27.797329 9.613803
RightToeBase 20.009086 -0.000000 -0.000000
397
root 2.249931 35.781367 -10.584630 -171.800366 -1.018298 -179.729771
Spine -11.035581 8.798394 -2.634690
Head -1.136385 -4.733615 8.663930
LeftShoulder -15.173752 10.079631 18.631583
LeftArm -16.973960 -50.248500 -13.776825
LeftForeArm -0.000000 9.109950 1.541945
LeftHand 5.146755 -0.000000 7.963817
LeftHandThumb1 -26.253704 33.147579 0.000000
RightShoulder -31.678485 1.764282 -24.410148
RightArm -19.042078 31.829031 11.296124
RightForeArm 0.000000 -52.448877 15.902686
RightHand -2.080275 -0.000000 5.175377
RightHandThumb1 -24.326973 -32.862282 -0.000000
LeftUpLeg -2.991483 8.049596 -2.784413
LeftLeg -3.018864 -0.000000 0.000000
LeftFoot -15.174336 23.408017 -9.538445
LeftToeBase 20.209898 -0.000000 -0.000000
RightUpLeg -3.762722 -10.433906 0.642933
RightLeg -0.947064 -0.000000 0.000000
RightFoot -15.444586 -27.889732 9.705846
RightToeBase 19.971824 -0.000000 -0.000000
398
root 2.247278 35.782236 -10.601373 -171.786000 -1.344252 -179.776582
Spine -11.069418 8.648303 -2.675116
Head -1.043623 -4.650085 8.717522
LeftShoulder -15.313056 10.236704 18.687765
LeftArm -17.472334 -50.491578 -13.893572
LeftForeArm -0.000000 8.572923 1.465151
LeftHand 5.270632 -0.000000 7.439873
LeftHandThumb1 -26.253704 33.147579 0.000000
RightShoulder -31.679074 1.897346 -24.649895
RightArm -20.053743 31.733113 10.857635
RightForeArm -0.000000 -52.407964 15.899059
RightHand -2.184292 0.000000 5.429461
RightHandThumb1 -24.326973 -32.862282 -0.000000
LeftUpLeg -3.041607 7.704440 -2.786619
LeftLeg -2.940013 -0.000000 0.000000
LeftFoot -15.178673 23.393249 -9.594139
LeftToeBase 20.156057 -0.000000 -0.000000
RightUpLeg -3.713229 -10.680940 0.624245
RightLeg -0.933757 -0.000000 0.000000
RightFoot -15.547823 -27.948767 9.800655
RightToeBase 19.991387 -0.000000 -0.000000
399
root 2.246900 35.782725 -10.619932 -171.780419 -1.662419 -179.824569
Spine -11.096469 8.531307 -2.722342
Head -0.970071 -4.591056 8.753436
LeftShoulder -15.598186 10.348311 18.680677
LeftArm -17.477146 -50.671541 -14.240632
LeftForeArm -0.000000 8.289060 1.248724
LeftHand 5.166805 -0.000000 7.716222
LeftHandThumb1 -26.253704 33.147579 0.000000
RightShoulder -31.697957 1.933397 -24.844683
RightArm -21.053739 31.865074 10.413538
RightForeArm -0.000000 -52.361889 16.001971
RightHand -2.115039 0.000000 5.589093
RightHandThumb1 -24.326973 -32.862282 -0.000000
LeftUpLeg -3.075190 7.382773 -2.786144
LeftLeg -2.869958 -0.000000 0.000000
LeftFoot -15.180962 23.366311 -9.608891
LeftToeBase 20.124324 -0.000000 -0.000000
RightUpLeg -3.659791 -10.904339 0.603437
RightLeg -0.901785 -0.000000 0.000000
RightFoot -15.655824 -28.022164 9.864281
RightToeBase 20.011740 -0.000000 -0.000000
400
root 2.246708 35.784409 -10.632315 -171.786943 -2.000958 -179.868025
Spine -11.116983 8.419752 -2.779469
Head -0.842009 -4.570472 8.820853
LeftShoulder -15.530406 10.246120 18.694741
LeftArm -18.212644 -50.697708 -14.006990
LeftForeArm -0.000000 8.161892 1.241418
LeftHand 5.126823 0.000000 7.947837
LeftHandThumb1 -26.253704 33.147579 0.000000
RightShoulder -31.708695 2.035512 -25.033829
RightArm -21.962266 32.032185 9.944593
RightForeArm 0.000000 -52.418375 15.955035
RightHand -2.038383 -0.000000 5.718127
RightHandThumb1 -24.326973 -32.862282 -0.000000
LeftUpLeg -3.127251 7.023627 -2.778177
LeftLeg -2.761035 -0.000000 0.000000
LeftFoot -15.190601 23.352387 -9.669934
LeftToeBase 20.046338 -0.000000 -0.000000
RightUpLeg -3.619289 -11.161894 0.589496
RightLeg -0.837403 -0.000000 0.000000
RightFoot -15.778862 -28.066245 9.976359
RightToeBase 20.002344 -0.000000 -0.000000
